<?xml version="1.0" encoding="UTF-8"?>
<svg id="Layer_1" xmlns="http://www.w3.org/2000/svg" version="1.1" viewBox="0 0 200 200">
  <!-- Generator: Adobe Illustrator 30.0.0, SVG Export Plug-In . SVG Version: 2.1.1 Build 123)  -->
  <defs>
    <style>
      .st0 {
        fill: #f2ebd9;
      }

      .st1 {
        fill: #ff6542;
      }
    </style>
  </defs>
  <circle class="st0" cx="100" cy="100" r="100"/>
  <g>
    <path class="st1" d="M182.83,83.56l10.21-5.77c-.66,8.53-3.84,17.07-9.1,23.4l9.24-3.03c-.07,3-1.37,6.6-2.5,9.4-5.45,13.49-12.19,16.69-24.87,18.8-17.55,2.93-35.76,3.07-53.47,3.4-.91-.19-1.08-2.17-1.23-3.04,15.57-6.7,31.03-14.18,45.71-23.05,9.26-5.6,18.56-11.81,26.03-20.11h-.01Z"/>
    <path class="st1" d="M111.1,126.72c-.03-.14-.46-.47-.27-.9l81.11-67.18v4.71c0,.79-.73,3.75-.96,4.71-1.46,5.83-4.54,11.04-8.14,15.5-7.46,8.3-16.76,14.51-26.03,20.11-14.66,8.86-30.14,16.35-45.71,23.05Z"/>
    <path class="st1" d="M134.27,59.24v4.87h-10.75v10.94l-23.02,2.45-23.88-2.45v-10.94h-10.75v-4.87h68.41Z"/>
    <path class="st1" d="M100.34,96.32s.07-.47.27-.75c2.56-3.19,2.18-3.73,3.63-7.26,3.56-8.68,12.87-10.22,19.96-5.94l12.83-2.45-8.68,8.8c5.72,16.95-14.69,28.32-23.45,13.08l-4.97,11.86-4.69-11.86c-8.8,15.22-29.17,3.89-23.44-13.08l-8.7-8.81,12.83,2.45c6.97-4.23,16.26-2.74,19.86,5.74.6,1.39.72,2.94,1.21,4.13.22.52,2.22,3.27,2.65,3.76.18.2.39.55.66.32h.03ZM91.91,94.47c0-4.85-3.56-8.79-7.97-8.79s-7.97,3.93-7.97,8.79,3.56,8.79,7.97,8.79,7.97-3.93,7.97-8.79ZM124.13,94.47c0-4.85-3.58-8.79-7.97-8.79s-7.97,3.93-7.97,8.79,3.58,8.79,7.97,8.79,7.97-3.93,7.97-8.79Z"/>
    <path class="st1" d="M17.31,83.56c6.76,8.07,17.29,14.84,26.03,20.11,14.68,8.84,30.12,16.35,45.71,23.05-.17.88-.33,2.86-1.23,3.04-3.59-.09-7.19.09-10.78,0-13.81-.32-29.03-1.13-42.71-3.4-12.95-2.15-19.75-5.57-25.14-19.41-.72-1.82-2.26-6.23-2.35-8.05-.04-.73.4-.5.91-.39,2.38.53,4.97,1.82,7.36,2.53.23.07.86.33.85-.01-4.97-6.49-8.24-14.73-8.83-23.25l10.21,5.77h-.01Z"/>
    <path class="st1" d="M17.31,83.56c-3.72-4.44-9.1-14.1-9.1-20.21v-4.71l81.11,67.18c.18.43-.25.77-.27.9-15.57-6.69-31.03-14.2-45.71-23.05-8.74-5.27-19.27-12.04-26.03-20.11Z"/>
    <path class="st1" d="M106.14,144.96c-.52-.07-.14.55-.09.85.77,3.93,2.04,7.75,2.81,11.7l-8.68,9.92c-.69.13-7.74-8.83-8.88-9.92l2.72-11.94c-1.07.89-4.86,9.26-5.41,9.4-.81.22-4.02-3.98-4.78-4.74l8.26-12.45c.6-.34,6.75,1.06,8.1,1.05,2.34-.03,5.29-1.06,7.71-1.15l8.44,12.32c.06.43-4.06,4.82-4.55,4.95-.39.1-.46-.23-.62-.49l-5.02-9.53v.03Z"/>
  </g>
</svg>