<?xml version="1.0" encoding="UTF-8"?>
<svg id="Layer_1" data-name="Layer 1" xmlns="http://www.w3.org/2000/svg" viewBox="0 0 200 200">
  <defs>
    <style>
      .cls-1 {
        fill: #f2ebd9;
      }

      .cls-2 {
        fill: #663265;
        stroke: #663265;
        stroke-miterlimit: 10;
      }
    </style>
  </defs>
  <circle class="cls-1" cx="100" cy="100" r="100"/>
  <g>
    <path class="cls-2" d="M178.89,78.07l9.73-5.54c-.63,8.2-3.66,16.4-8.67,22.49l8.8-2.91c-.07,2.88-1.3,6.34-2.38,9.03-5.19,12.96-11.61,16.04-23.69,18.07-16.72,2.82-34.06,2.95-50.93,3.27-.87-.18-1.03-2.09-1.17-2.92,14.83-6.44,29.56-13.63,43.54-22.15,8.82-5.38,17.68-11.35,24.79-19.33h-.02Z"/>
    <path class="cls-2" d="M110.56,119.54c-.03-.13-.44-.45-.26-.86l77.26-64.56v4.53c0,.76-.7,3.6-.91,4.53-1.39,5.6-4.32,10.61-7.75,14.9-7.11,7.98-15.96,13.94-24.79,19.33-13.96,8.51-28.71,15.71-43.54,22.15Z"/>
    <path class="cls-2" d="M132.63,54.7v4.68h-10.24v10.51l-21.93,2.35-22.75-2.35v-10.51h-10.24v-4.68h65.16,0Z"/>
    <path class="cls-2" d="M100.32,90.33s.07-.45.26-.72c2.44-3.07,2.08-3.58,3.46-6.98,3.39-8.34,12.26-9.82,19.01-5.71l12.22-2.35-8.27,8.46c5.45,16.29-13.99,27.22-22.34,12.57l-4.73,11.4-4.47-11.4c-8.38,14.63-27.78,3.74-22.33-12.57l-8.29-8.47,12.22,2.35c6.64-4.07,15.49-2.63,18.92,5.52.57,1.34.69,2.83,1.15,3.97.21.5,2.11,3.14,2.52,3.61.17.19.37.53.63.31h.03ZM92.29,88.55c0-4.66-3.39-8.45-7.59-8.45s-7.59,3.78-7.59,8.45,3.39,8.45,7.59,8.45,7.59-3.78,7.59-8.45ZM122.98,88.55c0-4.66-3.41-8.45-7.59-8.45s-7.59,3.78-7.59,8.45,3.41,8.45,7.59,8.45,7.59-3.78,7.59-8.45Z"/>
    <path class="cls-2" d="M21.23,78.07c6.44,7.76,16.47,14.26,24.79,19.33,13.98,8.5,28.69,15.71,43.54,22.15-.16.85-.31,2.75-1.17,2.92-3.42-.09-6.85.09-10.27,0-13.15-.31-27.65-1.09-40.68-3.27-12.33-2.07-18.81-5.35-23.95-18.65-.69-1.75-2.15-5.99-2.24-7.74-.04-.7.38-.48.87-.37,2.27.51,4.73,1.75,7.01,2.43.22.07.82.32.81,0-4.73-6.24-7.85-14.16-8.41-22.34l9.73,5.54h-.03Z"/>
    <path class="cls-2" d="M21.23,78.07c-3.54-4.27-8.67-13.55-8.67-19.42v-4.53l77.26,64.56c.17.41-.24.74-.26.86-14.83-6.43-29.56-13.65-43.54-22.15-8.32-5.06-18.35-11.57-24.79-19.33Z"/>
    <path class="cls-2" d="M105.84,137.07c-.5-.07-.13.53-.09.82.73,3.78,1.94,7.45,2.68,11.24l-8.27,9.53c-.66.12-7.37-8.49-8.46-9.53l2.59-11.47c-1.02.86-4.63,8.9-5.15,9.03-.77.21-3.83-3.82-4.55-4.56l7.87-11.96c.57-.33,6.43,1.02,7.72,1.01,2.23-.03,5.04-1.02,7.34-1.11l8.04,11.84c.06.41-3.87,4.63-4.33,4.76-.37.1-.44-.22-.59-.47l-4.78-9.16v.03h0Z"/>
  </g>
</svg>