<?xml version="1.0" encoding="UTF-8"?>
<svg id="Layer_1" data-name="Layer 1" xmlns="http://www.w3.org/2000/svg" viewBox="0 0 1023.72 508.21">
  <defs>
    <style>
      .cls-1 {
        fill: #762214;
        stroke: #a8452d;
        stroke-miterlimit: 10;
        stroke-width: 16px;
      }

      .cls-2 {
        fill: #ff6542;
      }

      .cls-3 {
        fill: #d55a3d;
      }
    </style>
  </defs>
  <path class="cls-2" d="M659.34,0v19.57h-47.75v44l-102.26,9.87-106.07-9.87V19.57h-47.75V0h303.83Z"/>
  <path class="cls-2" d="M508.63,149.14s.29-1.91,1.21-3c11.38-12.82,9.7-15.01,16.11-29.22,15.82-34.93,57.16-41.11,88.63-23.9l56.99-9.87-38.57,35.39c25.41,68.19-65.25,113.92-104.16,52.6l-22.06,47.69-20.84-47.69c-39.09,61.2-129.57,15.65-104.11-52.6l-38.63-35.45,56.99,9.87c30.95-17.03,72.23-11.03,88.23,23.1,2.66,5.6,3.18,11.84,5.37,16.63.98,2.08,9.87,13.16,11.78,15.13.81.81,1.73,2.19,2.95,1.27l.11.06ZM471.22,141.69c0-19.52-15.82-35.34-35.39-35.34s-35.39,15.82-35.39,35.34,15.82,35.34,35.39,35.34,35.39-15.82,35.39-35.34ZM614.3,141.69c0-19.52-15.88-35.34-35.39-35.34s-35.39,15.82-35.39,35.34,15.88,35.34,35.39,35.34,35.39-15.82,35.39-35.34Z"/>
  <path class="cls-3" d="M107.92,434.29c42.1-13.49,86.58-44.35,122.19-70.55,59.8-44.03,116.17-93.43,169.88-144.76,2.87,2.17,9.8,6.17,8.77,10.15-7.05,14.3-13.19,29.08-20.24,43.38-27.08,55.03-58.65,114.91-92.6,166.1-32.17,48.45-57.39,70.01-117.96,68.19-7.99-.22-26.96-1.49-33.77-4.23-2.74-1.09-1.07-2.48.3-4.32,6.4-8.67,15.97-16.89,23.03-25.32.7-.82,2.81-2.89,1.53-3.43-32.98,8.95-69.16,8.12-101.34-4.02l40.2-31.26.03.08Z"/>
  <path class="cls-2" d="M107.93,434.29c-23.15,7.42-68.47,12.65-90.76,2.25l-17.16-8.01,397.2-212.19c1.91,0,2.36,2.31,2.78,2.64-53.63,51.31-110.03,100.75-169.88,144.76-35.61,26.2-80.08,57.06-122.19,70.55Z"/>
  <path class="cls-2" d="M534.39,344.77c-2.31-.29-.63,2.19-.4,3.41,3.41,15.82,9.07,31.18,12.47,47.06l-38.57,39.9c-3.06.52-34.36-35.51-39.44-39.9l12.07-48.04c-4.73,3.58-21.6,37.24-24.02,37.82-3.58.87-17.84-15.99-21.25-19.05l36.66-50.06c2.66-1.39,29.97,4.27,35.97,4.22,10.39-.12,23.5-4.27,34.24-4.62l37.47,49.54c.29,1.73-18.01,19.4-20.21,19.92-1.73.4-2.02-.92-2.77-1.96l-22.29-38.34.06.12Z"/>
  <g>
    <line class="cls-1" x1="456.48" y1="162.59" x2="414.02" y2="120.13"/>
    <line class="cls-1" x1="413.4" y1="161.9" x2="458.25" y2="121.97"/>
  </g>
  <g>
    <line class="cls-1" x1="600.25" y1="163.17" x2="557.79" y2="120.71"/>
    <line class="cls-1" x1="557.18" y1="162.48" x2="602.02" y2="122.55"/>
  </g>
  <path class="cls-3" d="M915.83,435.53l40.2,31.26c-32.18,12.15-68.37,12.98-101.34,4.02-1.28.53.83,2.61,1.53,3.43,7.06,8.43,16.62,16.65,23.03,25.32,1.37,1.85,3.04,3.23.3,4.32-6.82,2.73-25.79,4-33.77,4.23-60.57,1.82-85.79-19.73-117.96-68.19-33.95-51.19-65.52-111.07-92.6-166.1-7.05-14.29-13.19-29.08-20.24-43.38-1.03-3.98,5.9-7.98,8.77-10.15,53.71,51.33,110.08,100.73,169.88,144.76,35.61,26.2,80.08,57.06,122.19,70.55l.03-.08Z"/>
  <path class="cls-2" d="M793.61,365.06c-59.85-44.01-116.24-93.45-169.88-144.76.42-.32.87-2.64,2.78-2.64l397.2,212.19-17.16,8.01c-22.29,10.4-67.61,5.17-90.76-2.25-42.1-13.49-86.58-44.35-122.19-70.55Z"/>
</svg>