<?xml version="1.0" encoding="UTF-8"?>
<svg id="Layer_1" xmlns="http://www.w3.org/2000/svg" xmlns:xlink="http://www.w3.org/1999/xlink" version="1.1" viewBox="0 0 67 89">
  <!-- Generator: Adobe Illustrator 29.8.1, SVG Export Plug-In . SVG Version: 2.1.1 Build 2)  -->
  <defs>
    <style>
      .st0 {
        fill: none;
      }

      .st1 {
        fill: #da271e;
      }

      .st2 {
        clip-path: url(#clippath);
      }
    </style>
    <clipPath id="clippath">
      <rect class="st0" y="0" width="67" height="89"/>
    </clipPath>
  </defs>
  <g class="st2">
    <g>
      <path class="st1" d="M41.91,0l-6.29,2.44c-13.48,5.88-25.7,15.6-30.32,29.9-2.67,8.26-3.35,18.13,1.91,25.56,6.14,8.65,17.42,10.78,27.51,10.66-.03.24-.74.28-.94.31-15.33,1.9-30.12-2.45-33.23-19.07C-3.46,28.32,14.88,8.35,34.31,1.81,36.71.99,39.39.18,41.91,0Z"/>
      <path class="st1" d="M37.07,89c-.25-1.07,1.08-2.16,1.39-3.16.29-.93.06-2.53.95-3.18.98-.72,1.13-.06,1.79-1.69,1.18-2.89.96-6.03,2.35-9.22.96-2.19,2.75-3.91,3.57-5.71.73-1.61.16-3.3.13-4.97-.04-2.09-.01-4.17.15-6.25-.16-.43-.96-.18-1.07-.75-.1-.5.43-1.09.27-1.65-.51-.11-.49.7-.83.91-.85.51-1.89-1.18-2.49-1.67-.08-.45,1.37-1.05,1.66-1.46.72-1,.67-2.99,2.33-3.63-.58-.29-1.29-1.12-1.86-1.29-.92-.28-2.47-.29-3.51-.49-.84-.15-1.63-.49-2.47-.61-.06,1.34-.95,2.56-1.26,3.78-.26.99-.26,2.08-.53,3.11-.65,2.45-3.21,5.28-2.47,7.96.27.97,1.42.96,1.42,1.81-2.67-.95-2.81,1.54-4.34,2.81-.01-1.5,1.09-2.77,1.29-4.24.2-1.48.01-3.14.23-4.72.31-2.29,1.4-4.19,1.77-6.33.33-1.9.21-3.89.62-5.81.28-1.31.87-2.51,1.26-3.78l-1.26.49c-.12,1.05.06,2.62-1.24,2.98l-.84-1.57c-.5-.24-.95.19-1.44.24-2.03.23-4.07-2.69-3.05-4.5.78-1.39.56-1.19.95-2.68.61-2.35,1.92-3.11,4.29-3.03,1.42.04,2.15.32,3.41.75.36.13.78.04,1.13.2.93.42-.1,2.17.28,2.69.23.32,1.11.22,1.34-.19.18-.31,1.18-4.93,1.24-5.53.14-1.29-.04-2.75.23-4.06.69-3.46,1.91-3.76,1.48-7.96-.21-2.1.94-3.07,1.54-4.72.52-1.43.67-3.42,1.11-4.91-.19-.18-4.24.43-4.87.54-1.68.29-3.68,1.05-5.25,1.25-.18.02-.61.14-.56-.15,3.48-1.38,7.11-2.47,10.86-2.88.8-1.14.08-2.82.49-3.92.21-.56,1.94-.55,1.99.28.03.58-1.37,3.34-1.15,3.55,5.28-.59,13.56.4,17.1,4.79,4.8,5.97-.89,11.34-5.93,14.4-.98.59-2.22,1.41-3.32,1.58l2.74-1.98c3.18-2.55,7.27-6.64,5.73-11.08-1.94-5.6-11.54-6.77-16.65-6.54-.09,1.74-1.2,3.89-1.3,5.55-.06,1.07.25,2.37.11,3.57-.21,1.76-1.16,3.69-1.31,5.62-.14,1.76.12,3.67,0,5.43-.19,2.68-1.22,5.31-.8,8.05.1.33,2.93,2.05,3.48,2.5,1.84,1.53,3.68,3.78,4.65,5.96.47,1.06,1.14,4.04,1.85,4.6.89.68,5.09,1.73,6.52,2.3,1,.4,5.2,2.28,5.48,3.16.23.73-.14,1.02-.65,1.43-2.28,1.87-5,3.18-7.33,5.28-2.73,2.48-4.97,6.4-7.86,8.4-.33.22-1.13.47-1.28.63-.17.19-.54,1.44-.73,1.83-2.52,5.18-4.92,11.33-8.66,15.67-.68.79-1.56,1.52-2.33,2.23h-.51ZM58.1,55.54l-3.67-.33c-.19,2.26-.36,4.41-1.7,6.32-.45.63-1.31,1.32-1.62,2.02-.31.7-.27,1.55-.5,2.3-.27.82-.89,1.43-1.18,2.22,2.06-.35,1.66-3.31,2.36-4.51.33-.58,1.85-1.11,2.49-1.83,1.28-1.47,1.29-3.79,2.61-5.17.34-.36.94-.61,1.24-1h-.01Z"/>
    </g>
  </g>
</svg>