<svg width="828" height="438" viewBox="0 0 828 438" fill="none" xmlns="http://www.w3.org/2000/svg">
<path d="M781.867 100.469L827.193 77.2578C824.248 111.555 810.16 145.911 786.775 171.374L827.828 159.191C827.539 171.258 821.765 185.751 816.742 197.011C792.549 251.286 762.582 264.162 706.286 272.65C628.337 284.429 547.443 285.006 468.801 286.334C464.759 285.584 464.009 277.615 463.316 274.093C532.488 247.129 601.141 217.046 666.329 181.363C707.44 158.844 748.782 133.843 781.925 100.469H781.867Z" fill="#FF6542"/>
<path d="M463.315 274.093C463.199 273.516 461.294 272.188 462.102 270.456L822.342 0.232422V19.1711C822.342 22.3468 819.108 34.2413 818.069 38.1098C811.602 61.5523 797.918 82.5119 781.924 100.469C748.781 133.843 707.497 158.844 666.328 181.363C601.198 216.988 532.487 247.129 463.315 274.093Z" fill="#FF6542"/>
<path d="M566.206 2.6582V22.2321H518.455V66.2299L416.198 76.1035L310.129 66.2299V22.2321H262.378V2.6582H566.206Z" fill="#FF6542"/>
<path d="M415.505 151.8C415.505 151.8 415.794 149.894 416.718 148.797C428.093 135.979 426.418 133.785 432.827 119.581C448.648 84.6481 489.99 78.4699 521.458 95.6764L578.448 85.8028L539.877 121.197C565.283 189.388 474.631 235.118 435.714 173.799L413.658 221.492L392.814 173.799C353.724 235.003 263.245 189.446 288.708 121.197L250.08 85.7451L307.07 95.6186C338.018 78.5854 379.302 84.5903 395.296 118.715C397.952 124.315 398.472 130.551 400.666 135.344C401.648 137.422 410.54 148.508 412.445 150.472C413.253 151.28 414.177 152.666 415.39 151.742L415.505 151.8ZM378.09 144.351C378.09 124.835 362.269 109.014 342.695 109.014C323.121 109.014 307.301 124.835 307.301 144.351C307.301 163.867 323.121 179.688 342.695 179.688C362.269 179.688 378.09 163.867 378.09 144.351ZM521.17 144.351C521.17 124.835 505.291 109.014 485.775 109.014C466.259 109.014 450.38 124.835 450.38 144.351C450.38 163.867 466.259 179.688 485.775 179.688C505.291 179.688 521.17 163.867 521.17 144.351Z" fill="#FF6542"/>
<path d="M342.755 164.559C354.043 164.559 363.195 155.434 363.195 144.177C363.195 132.92 354.043 123.795 342.755 123.795C331.466 123.795 322.315 132.92 322.315 144.177C322.315 155.434 331.466 164.559 342.755 164.559Z" fill="#FF6542"/>
<path d="M485.718 164.675C497.006 164.675 506.158 155.524 506.158 144.235C506.158 132.946 497.006 123.795 485.718 123.795C474.429 123.795 465.278 132.946 465.278 144.235C465.278 155.524 474.429 164.675 485.718 164.675Z" fill="#FF6542"/>
<path d="M46.7207 100.469C76.7455 132.919 123.515 160.173 162.316 181.363C227.505 216.931 296.1 247.129 365.33 274.094C364.579 277.616 363.886 285.584 359.845 286.334C343.908 285.988 327.914 286.681 311.978 286.334C250.658 285.064 183.045 281.773 122.302 272.65C64.7934 263.989 34.5954 250.247 10.6333 194.586C7.45756 187.253 0.586501 169.526 0.182321 162.193C0.00910155 159.249 1.97226 160.173 4.22412 160.634C14.7905 162.771 26.2808 167.967 36.905 170.797C37.9443 171.085 40.7158 172.125 40.6581 170.739C18.6014 144.64 4.0509 111.498 1.4526 77.2002L46.7785 100.412L46.7207 100.469Z" fill="#FF6542"/>
<path d="M46.7215 100.469C30.2078 82.6274 6.3035 43.7684 6.3035 19.1711V0.232422L366.543 270.456C367.352 272.188 365.446 273.573 365.331 274.093C296.158 247.186 227.505 216.988 162.317 181.363C123.516 160.172 76.7463 132.919 46.7215 100.469Z" fill="#FF6542"/>
<path d="M441.257 347.424C438.948 347.135 440.622 349.618 440.853 350.83C444.26 366.651 449.918 382.01 453.325 397.888L414.755 437.787C411.694 438.306 380.399 402.277 375.318 397.888L387.386 349.849C382.651 353.429 365.791 387.091 363.366 387.668C359.786 388.534 345.524 371.674 342.118 368.614L378.783 318.554C381.439 317.168 408.75 322.826 414.755 322.769C425.148 322.653 438.255 318.496 448.994 318.149L486.468 367.69C486.756 369.423 468.453 387.091 466.259 387.611C464.527 388.015 464.238 386.687 463.487 385.647L441.2 347.308L441.257 347.424Z" fill="#FF6542"/>
</svg>
