<?xml version="1.0" encoding="UTF-8"?>
<svg id="Layer_1" xmlns="http://www.w3.org/2000/svg" version="1.1" viewBox="0 0 400 400">
  <!-- Generator: Adobe Illustrator 30.0.0, SVG Export Plug-In . SVG Version: 2.1.1 Build 123)  -->
  <defs>
    <style>
      .st0 {
        fill: #3e1f47;
        font-family: ArialMT, Arial;
        font-size: 16px;
        isolation: isolate;
        opacity: .5;
      }

      .st1 {
        fill: #f2ebd9;
      }

      .st2 {
        fill: #ff6542;
      }

      .st3 {
        fill: #762214;
        stroke: #a8452d;
        stroke-miterlimit: 10;
        stroke-width: 9px;
      }
    </style>
  </defs>
  <rect class="st1" x="-1.72" width="400" height="400"/>
  <text class="st0" transform="translate(141.29 310)"><tspan x="0" y="0">Geen afbeelding</tspan></text>
  <g>
    <path class="st2" d="M352.86,125.59l19.06-10.61c-1.24,15.68-7.16,31.38-17,43.02l17.26-5.57c-.12,5.52-2.55,12.14-4.66,17.29-10.17,24.81-22.78,30.69-46.45,34.57-32.78,5.38-66.8,5.65-99.87,6.25-1.7-.34-2.02-3.99-2.31-5.6,29.09-12.32,57.96-26.08,85.37-42.39,17.29-10.29,34.67-21.72,48.61-36.98h-.02Z"/>
    <path class="st2" d="M218.9,204.95c-.05-.26-.85-.87-.51-1.66l151.49-123.51v8.66c0,1.45-1.36,6.89-1.8,8.66-2.72,10.72-8.47,20.3-15.2,28.5-13.94,15.25-31.3,26.68-48.61,36.98-27.39,16.28-56.29,30.06-85.37,42.39Z"/>
    <path class="st2" d="M262.17,80.88v8.95h-20.08v20.11l-43,4.51-44.61-4.51v-20.11h-20.08v-8.95h127.77Z"/>
    <path class="st2" d="M198.79,149.05s.12-.87.51-1.37c4.78-5.86,4.08-6.86,6.77-13.35,6.65-15.97,24.04-18.79,37.27-10.93l23.97-4.51-16.22,16.18c10.68,31.17-27.44,52.07-43.8,24.04l-9.28,21.8-8.77-21.8c-16.44,27.98-54.49,7.15-43.78-24.04l-16.24-16.2,23.97,4.51c13.01-7.79,30.38-5.04,37.1,10.56,1.12,2.56,1.34,5.41,2.26,7.6.41.95,4.15,6.02,4.95,6.91.34.37.73,1,1.24.58l.05.03ZM183.06,145.65c0-8.92-6.65-16.15-14.88-16.15s-14.88,7.23-14.88,16.15,6.65,16.15,14.88,16.15,14.88-7.23,14.88-16.15ZM243.23,145.65c0-8.92-6.68-16.15-14.88-16.15s-14.88,7.23-14.88,16.15,6.68,16.15,14.88,16.15,14.88-7.23,14.88-16.15Z"/>
    <path class="st2" d="M43.7,125.59c12.63,14.83,32.29,27.29,48.61,36.98,27.41,16.26,56.26,30.06,85.37,42.39-.32,1.61-.61,5.25-2.31,5.59-6.7-.16-13.43.16-20.13,0-25.79-.58-54.22-2.08-79.77-6.25-24.18-3.96-36.88-10.24-46.96-35.68-1.34-3.35-4.23-11.45-4.4-14.81-.07-1.35.75-.92,1.7-.71,4.44.98,9.28,3.35,13.74,4.65.44.13,1.6.61,1.58-.03-9.28-11.93-15.39-27.08-16.49-42.75l19.06,10.61-.02.03Z"/>
    <path class="st2" d="M43.7,125.59c-6.94-8.16-17-25.92-17-37.16v-8.66l151.49,123.51c.34.79-.46,1.42-.51,1.66-29.09-12.3-57.96-26.1-85.37-42.39-16.32-9.69-35.99-22.14-48.61-36.98Z"/>
    <path class="st2" d="M209.62,238.47c-.97-.13-.27,1-.17,1.56,1.43,7.23,3.81,14.25,5.24,21.51l-16.22,18.24c-1.29.24-14.45-16.23-16.58-18.24l5.08-21.96c-1.99,1.64-9.08,17.02-10.1,17.29-1.51.4-7.5-7.31-8.94-8.71l15.42-22.88c1.12-.63,12.6,1.95,15.13,1.93,4.37-.05,9.88-1.95,14.4-2.11l15.76,22.64c.12.79-7.58,8.87-8.5,9.11-.73.18-.85-.42-1.17-.9l-9.37-17.52.02.05Z"/>
    <g>
      <line class="st3" x1="176.86" y1="155.2" x2="159" y2="135.79"/>
      <line class="st3" x1="158.74" y1="154.88" x2="177.6" y2="136.63"/>
    </g>
    <g>
      <line class="st3" x1="237.32" y1="155.46" x2="219.46" y2="136.05"/>
      <line class="st3" x1="219.21" y1="155.15" x2="238.06" y2="136.89"/>
    </g>
  </g>
</svg>