<svg id="Laag_1" data-name="Laag 1" xmlns="http://www.w3.org/2000/svg" viewBox="0 0 2414.32 1397.72">
  <defs>
    <style>
      .cls-1 {
        fill: #663265;
      }
    </style>
  </defs>
  <title>Logo_paars</title>
  <circle class="cls-1" cx="972.97" cy="508.63" r="66.73"/>
  <circle class="cls-1" cx="1430.86" cy="509.27" r="66.73"/>
  <path class="cls-1" d="M1641.72,1004.36h-.27c-100.6,0-183.27,78.42-190,177.38-19.21,23.81-34.68,43.59-39.05,49.2-4.34-5.6-19.65-25.31-38.7-49a190.48,190.48,0,0,0-189.84-178.16h-.27c-104.91,0-190.35,85.29-190.5,190.24s85.2,190.62,190.24,190.77h.28a189.25,189.25,0,0,0,134.51-55.61,192.06,192.06,0,0,0,27-33.69L1411,1458l1,2.47,1-2.46,66.59-162.67a190.56,190.56,0,0,0,161.54,90.07h.27c104.92,0,190.36-85.29,190.51-190.24S1746.76,1004.51,1641.72,1004.36Zm-342.76,190a115.4,115.4,0,0,1-115.4,115.25h-.16a115.41,115.41,0,0,1,.16-230.81h.16A115.38,115.38,0,0,1,1299,1194.39Zm342.49,115.89h-.16a115.41,115.41,0,0,1,.16-230.81h.16a115.41,115.41,0,0,1-.16,230.81Z" transform="translate(-210.59 -685.61)"/>
  <polygon class="cls-1" points="802.17 376.37 757.89 355.47 747.91 376.61 741.07 373.41 750.66 353.08 706.39 332.18 696.73 352.65 690.76 349.86 700.44 329.37 656.16 308.47 646.43 329.1 632.71 322.68 642.31 302.35 325.87 152.96 315.8 174.3 306.57 169.98 316.66 148.61 272.38 127.71 262.23 149.22 253.4 145.09 263.57 123.55 219.29 102.65 209.06 124.33 201 120.56 211.25 98.85 166.98 77.95 156.66 99.8 140.3 92.14 89.82 204.98 772.79 435.55 793.58 397.99 792.25 397.37 802.17 376.37"/>
  <polygon class="cls-1" points="2273.18 92.14 2256.81 99.8 2246.5 77.95 2202.23 98.85 2212.47 120.56 2204.41 124.33 2194.18 102.65 2149.91 123.55 2160.08 145.09 2151.24 149.22 2141.09 127.71 2096.82 148.61 2106.91 169.98 2097.68 174.3 2087.6 152.96 1771.16 302.35 1780.76 322.68 1767.05 329.1 1757.31 308.47 1713.04 329.37 1722.71 349.86 1716.75 352.65 1707.08 332.18 1662.81 353.08 1672.41 373.41 1665.56 376.61 1655.58 355.47 1611.31 376.37 1621.22 397.37 1619.89 397.99 1640.68 435.55 2323.66 204.98 2273.18 92.14"/>
  <path class="cls-1" d="M1309.23,1476.67l-38.41-34.89-13.76,17.74-3.29-3.11-33.43,43.27,2.77,7.06a172.59,172.59,0,0,1-55,29.09c-51.89,16.07-103.89,3.51-154.55-37.34-32.77-26.42-67.9-43.52-104.43-50.83a217.82,217.82,0,0,0-92.12,1.71c-54,12.42-92.16,40.74-102.56,49.12l21.22,26.31c6.38-5.15,40.7-31.41,88.91-42.49,59.42-13.66,115.86.64,167.77,42.49,48.7,39.27,94.37,51.48,132.32,51.47a180.51,180.51,0,0,0,53.44-8.16,206.61,206.61,0,0,0,70.75-38.78l15.13,1.79,33-34-2.7-2.55Z" transform="translate(-210.59 -685.61)"/>
  <path class="cls-1" d="M2016.13,1449.37a217.82,217.82,0,0,0-92.12-1.71c-36.53,7.31-71.66,24.41-104.43,50.83-50.23,40.5-101.8,53.19-153.28,37.73A173.64,173.64,0,0,1,1610,1506.7l2.76-7-33.44-43.27-3.29,3.11-13.76-17.74-38.41,34.89,15,17.92-2.7,2.55,33,34,15.13-1.79a206.58,206.58,0,0,0,70.76,38.78,180.12,180.12,0,0,0,53.43,8.16c38,0,83.62-12.2,132.32-51.47,51.91-41.85,108.36-56.15,167.77-42.49,48.21,11.08,82.53,37.34,88.92,42.49l21.21-26.31C2108.29,1490.11,2070.17,1461.79,2016.13,1449.37Z" transform="translate(-210.59 -685.61)"/>
  <polygon class="cls-1" points="1692.26 0 1202.09 0 711.93 0 711.93 66.16 912.94 66.16 869.35 257.49 1202.09 305.93 1534.84 257.49 1491.25 66.16 1692.26 66.16 1692.26 0"/>
  <g>
    <path class="cls-1" d="M291.52,1992q-33.66,0-57.38-23.91t-23.55-57.55q.18-33.46,24.26-57,23.91-23.37,57.55-23.37H418.13a13.91,13.91,0,0,1,14,14v42.32a13.93,13.93,0,0,1-14,14H291.52a9.78,9.78,0,0,0-7.62,3.36,10,10,0,0,0-3,7.79,9.45,9.45,0,0,0,3.54,7.09,10.44,10.44,0,0,0,7.44,2.83h73.49q33.64,0,57.37,23.91t23.55,57.55q-.18,33.28-24.26,56.84t-57.55,23.55H238.75a14.2,14.2,0,0,1-14.17-14V2027a13.24,13.24,0,0,1,4.25-9.92,13.51,13.51,0,0,1,9.92-4.07H365.36a10.12,10.12,0,0,0,7.61-3.36,9.51,9.51,0,0,0,2.84-7.8,9.65,9.65,0,0,0-3.37-7.08A10.82,10.82,0,0,0,365,1992Z" transform="translate(-210.59 -685.61)"/>
    <path class="cls-1" d="M533.23,2048.08a3.21,3.21,0,0,0-3.19,2.3l-9.38,23.91q-3.55,9-13.11,9H462.22a14,14,0,0,1-13.1-19.12l88-225.25q3.36-8.85,13.1-8.85h61.45q9.74,0,13.1,9l85.53,225.07a13.67,13.67,0,0,1-1.42,13.1,13.5,13.5,0,0,1-11.68,6H652.05q-9.74,0-13.1-9l-9-23.91a3.34,3.34,0,0,0-3.37-2.3Zm50.65-118.64a3.34,3.34,0,0,0-3.37-2.3,3.19,3.19,0,0,0-3.19,2.12L560.15,1973a3.39,3.39,0,0,0,.53,3.19,3,3,0,0,0,2.83,1.59h33.65a3.36,3.36,0,0,0,2.83-1.42,3.79,3.79,0,0,0,.53-3.36Z" transform="translate(-210.59 -685.61)"/>
    <path class="cls-1" d="M938.21,2013a13.9,13.9,0,0,1,14,14v42.32a13.9,13.9,0,0,1-4.07,9.92,13.48,13.48,0,0,1-9.92,4.07h-190a13.9,13.9,0,0,1-14-14V1844.09a13.48,13.48,0,0,1,4.07-9.92,13.9,13.9,0,0,1,9.92-4.07h42.32a13.91,13.91,0,0,1,14,14v165.39q0,3.54,3.54,3.54Z" transform="translate(-210.59 -685.61)"/>
    <path class="cls-1" d="M1087.49,2074.29q-3.54,9-13.1,9h-61.63q-9.74,0-13.1-9l-85.53-225.07a13.42,13.42,0,0,1,1.59-13.1,13.12,13.12,0,0,1,11.51-6h45.16q9.74,0,13.1,9L1040.57,1984a3.31,3.31,0,0,0,3.36,2.3,3.21,3.21,0,0,0,3.19-2.3l56.66-145q3.54-8.85,13.11-8.85h45.33a14,14,0,0,1,13.1,19.12Z" transform="translate(-210.59 -685.61)"/>
    <path class="cls-1" d="M1403.23,2013a13.91,13.91,0,0,1,14,14v42.32a13.87,13.87,0,0,1-4.08,9.92,13.46,13.46,0,0,1-9.91,4.07h-190a13.9,13.9,0,0,1-14-14V1844.09a13.52,13.52,0,0,1,4.07-9.92,13.92,13.92,0,0,1,9.92-4.07h190a13.91,13.91,0,0,1,14,14v42.32a13.93,13.93,0,0,1-14,14H1273.07q-3.54,0-3.54,3.54V1925q0,3.54,3.54,3.54h83.23a13.49,13.49,0,0,1,9.92,4.08,13.78,13.78,0,0,1,4.25,10.09v28a13.8,13.8,0,0,1-4.25,10.09,13.48,13.48,0,0,1-9.92,4.07h-83.23c-2.36,0-3.54,1.19-3.54,3.55v21.07q0,3.54,3.54,3.54Z" transform="translate(-210.59 -685.61)"/>
    <path class="cls-1" d="M1605.1,1964.85a3.56,3.56,0,0,0-6.38,2v102.53a13.86,13.86,0,0,1-4.07,9.92,13.48,13.48,0,0,1-9.92,4.07h-42.32a13.91,13.91,0,0,1-14-14V1844.09a13.49,13.49,0,0,1,4.08-9.92,13.88,13.88,0,0,1,9.91-4.07h46.93a13.38,13.38,0,0,1,11.51,6l58.26,83.22a3.4,3.4,0,0,0,3,1.6,3.25,3.25,0,0,0,2.83-1.6l58.26-83.22a13.38,13.38,0,0,1,11.51-6h46.93a13.5,13.5,0,0,1,9.91,4.07,13.2,13.2,0,0,1,4.25,9.92v225.24a14.2,14.2,0,0,1-14.16,14H1739.5a14.2,14.2,0,0,1-14.16-14V1966.8a3.05,3.05,0,0,0-2.48-3.18,3.1,3.1,0,0,0-3.9,1.23l-54,77.21a3.35,3.35,0,0,1-2.83,1.42,3.53,3.53,0,0,1-3-1.42Z" transform="translate(-210.59 -685.61)"/>
    <path class="cls-1" d="M1929.33,2083.32q-46.39.18-79.33-32.76-32.94-32.76-32.94-79.15V1844.09a13.49,13.49,0,0,1,4.08-9.92,13.88,13.88,0,0,1,9.91-4.07h42.33a13.91,13.91,0,0,1,14,14v127.32a41.32,41.32,0,0,0,71.18,28.86,40.67,40.67,0,0,0,11.87-29.39V1844.09a13.2,13.2,0,0,1,4.25-9.92,13.5,13.5,0,0,1,9.91-4.07h42.15a13.91,13.91,0,0,1,14,14v126.25q0,46.58-32.59,79.69T1929.33,2083.32Z" transform="translate(-210.59 -685.61)"/>
    <path class="cls-1" d="M2138.64,1971.94a3.21,3.21,0,0,0-3.89-1.42,3.33,3.33,0,0,0-2.48,3.37v95.44a13.87,13.87,0,0,1-4.08,9.92,13.46,13.46,0,0,1-9.91,4.07H2076a13.9,13.9,0,0,1-14-14V1844.09a13.48,13.48,0,0,1,4.07-9.92,13.9,13.9,0,0,1,9.92-4.07h42a13.1,13.1,0,0,1,11.51,6l73.85,105.36a3.21,3.21,0,0,0,3.89,1.42,3.34,3.34,0,0,0,2.48-3.37v-95.44a13.52,13.52,0,0,1,4.07-9.92,14.13,14.13,0,0,1,10.1-4.07H2266a13.9,13.9,0,0,1,14,14v225.24a13.9,13.9,0,0,1-4.07,9.92,13.48,13.48,0,0,1-9.92,4.07h-42a13.35,13.35,0,0,1-11.51-6Z" transform="translate(-210.59 -685.61)"/>
    <path class="cls-1" d="M2533.35,1956.71q0,52.24-37.18,89.42-37,37.2-89.43,37.19h-91.55a13.9,13.9,0,0,1-14-14V1844.09a13.52,13.52,0,0,1,4.07-9.92,13.92,13.92,0,0,1,9.92-4.07h90.49q52.23,0,90,37.18T2533.35,1956.71ZM2375,1900.4q-3.54,0-3.54,3.54v105.54q0,3.54,3.54,3.54h31.7q23.39,0,40-16.64a56,56,0,0,0-.71-79.69,55.54,55.54,0,0,0-40-16.29Z" transform="translate(-210.59 -685.61)"/>
    <path class="cls-1" d="M2610.92,1830.1a13.91,13.91,0,0,1,14,14v225.24a13.87,13.87,0,0,1-4.08,9.92,13.46,13.46,0,0,1-9.91,4.07h-42.33a13.91,13.91,0,0,1-14-14V1844.09a13.49,13.49,0,0,1,4.08-9.92,13.88,13.88,0,0,1,9.91-4.07Z" transform="translate(-210.59 -685.61)"/>
  </g>
</svg>
